<?xml version="1.0" encoding="utf-8"?>
<!-- Generator: Adobe Illustrator 18.1.1, SVG Export Plug-In . SVG Version: 6.00 Build 0)  -->
<svg version="1.1" id="Layer_1" xmlns="http://www.w3.org/2000/svg" xmlns:xlink="http://www.w3.org/1999/xlink" x="0px" y="0px"
	 viewBox="0 0 96.7 83.9" enable-background="new 0 0 96.7 83.9" xml:space="preserve">
<path fill="#5491DB" stroke="#5491DB" stroke-miterlimit="10" d="M95.9,47.6L49.2,0.8c-0.4-0.4-1.2-0.4-1.6,0L0.8,47.6
	c-0.7,0.7-0.2,2,0.8,2h93.4C96.1,49.5,96.6,48.3,95.9,47.6z"/>
<path fill="#5491DB" stroke="#5491DB" stroke-miterlimit="10" d="M82.2,49.6v31.9c0,0.6-0.7,1.1-1.5,1.1h-64c-0.8,0-1.5-0.5-1.5-1.1
	V49.6c0-0.6,0.7-1.1,1.5-1.1h64C81.5,48.5,82.2,49,82.2,49.6z"/>
<path fill="#5491DB" stroke="#5491DB" stroke-miterlimit="10" d="M15.1,33.5V12c0-0.8,0.7-1.5,1.5-1.5h6c0.8,0,1.5,0.7,1.5,1.5v21.5
	H15.1z"/>
<path fill="#F8F8F8" stroke="#F8F8F8" stroke-miterlimit="10" d="M37.9,83.4V57.8c0-1,0.7-1.8,1.6-1.8h17.7c0.9,0,1.6,0.8,1.6,1.8
	v25.6H37.9z"/>
</svg>
