<?xml version="1.0" encoding="utf-8"?>
<!-- Generator: Adobe Illustrator 18.1.1, SVG Export Plug-In . SVG Version: 6.00 Build 0)  -->
<svg version="1.1" id="Layer_1" xmlns="http://www.w3.org/2000/svg" xmlns:xlink="http://www.w3.org/1999/xlink" x="0px" y="0px"
	 viewBox="168 0 792.2 560" enable-background="new 168 0 792.2 560" xml:space="preserve">
<path fill="#437ECE" d="M224.8,121.3c3.9-13.2,15.8-22,29.3-22l603.1,2V81.3c0-17.1-13.8-30.6-30.6-30.6H457.4
	c-10.5,0-20.1-5.3-25.7-13.8l-14.8-22.7C411,5.3,401.4,0,390.9,0H263c-10.9,0-21.1,5.9-26.3,15.1l-11.8,20.1
	c-5.6,9.5-15.5,15.1-26.3,15.1c-17.2,0-30.7,13.9-30.7,30.6v237.1L224.8,121.3z"/>
<path fill="#437ECE" d="M303.5,157.2l626.2,2c20.4,0,34.9,19.4,29.3,38.8l-98.6,340c-3.9,13.2-15.8,22-29.3,22l-626.2-2
	c-20.4,0-34.9-19.4-29.3-38.8l98.6-340C277.8,166.1,290,156.8,303.5,157.2z"/>
</svg>
