<?xml version="1.0" encoding="utf-8"?>
<!-- Generator: Adobe Illustrator 18.1.1, SVG Export Plug-In . SVG Version: 6.00 Build 0)  -->
<svg version="1.1" id="Layer_1" xmlns="http://www.w3.org/2000/svg" xmlns:xlink="http://www.w3.org/1999/xlink" x="0px" y="0px"
	 viewBox="0 0 210 140" enable-background="new 0 0 210 140" xml:space="preserve">
<g>
	<g>
		<line fill="none" stroke="#AACD4D" stroke-width="4" stroke-miterlimit="10" x1="17" y1="26" x2="43" y2="26"/>
		<line fill="none" stroke="#AACD4D" stroke-width="4" stroke-miterlimit="10" x1="17" y1="42" x2="43" y2="42"/>
	</g>
	<path fill="#AACD4D" d="M53,0H7C3.1,0,0,3.1,0,7v126c0,3.9,3.1,7,7,7h46c3.9,0,7-3.1,7-7V7C60,3.1,56.9,0,53,0z M30,120
		c-7.2,0-13-5.8-13-13s5.8-13,13-13s13,5.8,13,13S37.2,120,30,120z M50,63c0,3.9-3.1,7-7,7H17c-3.9,0-7-3.1-7-7V17c0-3.9,3.1-7,7-7
		h26c3.9,0,7,3.1,7,7V63z"/>
</g>
<g>
	<g>
		<line fill="none" stroke="#AACD4D" stroke-width="4" stroke-miterlimit="10" x1="92" y1="26" x2="118" y2="26"/>
		<line fill="none" stroke="#AACD4D" stroke-width="4" stroke-miterlimit="10" x1="92" y1="42" x2="118" y2="42"/>
	</g>
	<path fill="#AACD4D" d="M128,0H82c-3.9,0-7,3.1-7,7v126c0,3.9,3.1,7,7,7h46c3.9,0,7-3.1,7-7V7C135,3.1,131.9,0,128,0z M105,120
		c-7.2,0-13-5.8-13-13s5.8-13,13-13s13,5.8,13,13S112.2,120,105,120z M125,63c0,3.9-3.1,7-7,7H92c-3.9,0-7-3.1-7-7V17
		c0-3.9,3.1-7,7-7h26c3.9,0,7,3.1,7,7V63z"/>
</g>
<g>
	<g>
		<line fill="none" stroke="#AACD4D" stroke-width="4" stroke-miterlimit="10" x1="167" y1="26" x2="193" y2="26"/>
		<line fill="none" stroke="#AACD4D" stroke-width="4" stroke-miterlimit="10" x1="167" y1="42" x2="193" y2="42"/>
	</g>
	<path fill="#AACD4D" d="M203,0h-46c-3.9,0-7,3.1-7,7v126c0,3.9,3.1,7,7,7h46c3.9,0,7-3.1,7-7V7C210,3.1,206.9,0,203,0z M180,120
		c-7.2,0-13-5.8-13-13s5.8-13,13-13s13,5.8,13,13S187.2,120,180,120z M200,63c0,3.9-3.1,7-7,7h-26c-3.9,0-7-3.1-7-7V17
		c0-3.9,3.1-7,7-7h26c3.9,0,7,3.1,7,7V63z"/>
</g>
</svg>
