<?xml version="1.0" encoding="utf-8"?>
<!-- Generator: Adobe Illustrator 19.0.0, SVG Export Plug-In . SVG Version: 6.00 Build 0)  -->
<svg version="1.1" id="Layer_1" xmlns="http://www.w3.org/2000/svg" xmlns:xlink="http://www.w3.org/1999/xlink" x="0px" y="0px"
	 viewBox="0 0 101 132.5" enable-background="new 0 0 101 132.5" xml:space="preserve">
<g>
	<path fill="#3A3A3A" stroke="#3A3A3A" stroke-miterlimit="10" d="M84.9,132H16.1c-8.6,0-15.6-7-15.6-15.6V57.6
		C0.5,49,7.5,42,16.1,42h68.7c8.6,0,15.6,7,15.6,15.6v58.7C100.5,125,93.5,132,84.9,132z"/>
	<path fill="none" stroke="#3A3A3A" stroke-width="10" stroke-miterlimit="10" d="M50.5,95L50.5,95c-13.8,0-25-11.2-25-25V30
		c0-13.7,11.2-25,25-25h0c13.7,0,25,11.2,25,25v40C75.5,83.8,64.3,95,50.5,95z"/>
	<circle fill="#FFFFFF" cx="50.3" cy="87.3" r="15"/>
</g>
</svg>
