<?xml version="1.0" encoding="utf-8"?>
<!-- Generator: Adobe Illustrator 18.1.1, SVG Export Plug-In . SVG Version: 6.00 Build 0)  -->
<svg version="1.1" id="Layer_1" xmlns="http://www.w3.org/2000/svg" xmlns:xlink="http://www.w3.org/1999/xlink" x="0px" y="0px"
	 viewBox="0 0 240.9 170.2" enable-background="new 0 0 240.9 170.2" xml:space="preserve">
<path fill="#FFFFFF" d="M17.4,36.9c1.2-4,4.8-6.7,8.9-6.7l183.4,0.6v-6.1c0-5.2-4.2-9.3-9.3-9.3H88.1c-3.2,0-6.1-1.6-7.8-4.2
	l-4.5-6.9C74,1.6,71.1,0,67.9,0H29c-3.3,0-6.4,1.8-8,4.6l-3.6,6.1c-1.7,2.9-4.7,4.6-8,4.6c-5.2,0-9.3,4.2-9.3,9.3v72.1L17.4,36.9z"
	/>
<path fill="#FFFFFF" d="M41.3,47.8l190.4,0.6c6.2,0,10.6,5.9,8.9,11.8l-30,103.4c-1.2,4-4.8,6.7-8.9,6.7l-190.4-0.6
	c-6.2,0-10.6-5.9-8.9-11.8l30-103.4C33.5,50.5,37.2,47.7,41.3,47.8z"/>
</svg>
