<?xml version="1.0" encoding="utf-8"?>
<!-- Generator: Adobe Illustrator 18.1.1, SVG Export Plug-In . SVG Version: 6.00 Build 0)  -->
<svg version="1.1" id="Layer_1" xmlns="http://www.w3.org/2000/svg" xmlns:xlink="http://www.w3.org/1999/xlink" x="0px" y="0px"
	 viewBox="0 0 211 141" enable-background="new 0 0 211 141" xml:space="preserve">
<g>
	<g>
		<line fill="#FFFFFF" stroke="#FFFFFF" stroke-width="4" stroke-miterlimit="10" x1="18" y1="26" x2="44" y2="26"/>
		<line fill="#FFFFFF" stroke="#FFFFFF" stroke-width="4" stroke-miterlimit="10" x1="18" y1="42" x2="44" y2="42"/>
	</g>
	<path fill="#FFFFFF" stroke="#FFFFFF" stroke-miterlimit="10" d="M60.5,7.5c0-3.9-3.1-7-7-7h-46c-3.9,0-7,3.1-7,7v126
		c0,3.9,3.1,7,7,7h46c3.9,0,7-3.1,7-7V7.5z M31,120c-7.2,0-13-5.8-13-13s5.8-13,13-13s13,5.8,13,13S38.2,120,31,120z M50.5,63.5
		c0,3.9-3.1,7-7,7h-26c-3.9,0-7-3.1-7-7v-46c0-3.9,3.1-7,7-7h26c3.9,0,7,3.1,7,7V63.5z"/>
</g>
<g>
	<g>
		<line fill="#FFFFFF" stroke="#FFFFFF" stroke-width="4" stroke-miterlimit="10" x1="93" y1="26" x2="119" y2="26"/>
		<line fill="#FFFFFF" stroke="#FFFFFF" stroke-width="4" stroke-miterlimit="10" x1="93" y1="42" x2="119" y2="42"/>
	</g>
	<path fill="#FFFFFF" stroke="#FFFFFF" stroke-miterlimit="10" d="M135.5,7.5c0-3.9-3.1-7-7-7h-46c-3.9,0-7,3.1-7,7v126
		c0,3.9,3.1,7,7,7h46c3.9,0,7-3.1,7-7V7.5z M106,120c-7.2,0-13-5.8-13-13s5.8-13,13-13s13,5.8,13,13S113.2,120,106,120z M125.5,63.5
		c0,3.9-3.1,7-7,7h-26c-3.9,0-7-3.1-7-7v-46c0-3.9,3.1-7,7-7h26c3.9,0,7,3.1,7,7V63.5z"/>
</g>
<g>
	<g>
		<line fill="#FFFFFF" stroke="#FFFFFF" stroke-width="4" stroke-miterlimit="10" x1="168" y1="26" x2="194" y2="26"/>
		<line fill="#FFFFFF" stroke="#FFFFFF" stroke-width="4" stroke-miterlimit="10" x1="168" y1="42" x2="194" y2="42"/>
	</g>
	<path fill="#FFFFFF" stroke="#FFFFFF" stroke-miterlimit="10" d="M210.5,7.5c0-3.9-3.1-7-7-7h-46c-3.9,0-7,3.1-7,7v126
		c0,3.9,3.1,7,7,7h46c3.9,0,7-3.1,7-7V7.5z M181,120c-7.2,0-13-5.8-13-13s5.8-13,13-13s13,5.8,13,13S188.2,120,181,120z M200.5,63.5
		c0,3.9-3.1,7-7,7h-26c-3.9,0-7-3.1-7-7v-46c0-3.9,3.1-7,7-7h26c3.9,0,7,3.1,7,7V63.5z"/>
</g>
</svg>
