<?xml version="1.0" encoding="utf-8"?>
<!-- Generator: Adobe Illustrator 18.1.1, SVG Export Plug-In . SVG Version: 6.00 Build 0)  -->
<svg version="1.1" id="Layer_1" xmlns="http://www.w3.org/2000/svg" xmlns:xlink="http://www.w3.org/1999/xlink" x="0px" y="0px"
	 viewBox="0 0 880 880" enable-background="new 0 0 880 880" xml:space="preserve">
<path fill="#353B44" d="M879.2,413.1l-89.9-21.8c-20.1-4.9-36-20.2-41.8-40c-6.6-23.1-15.8-45-27.2-65.6c-10-18.2-9.7-40.3,1.1-58.1
	l48.1-79c-11.9-13.4-24.6-26.2-38.1-38.1l-79,48.1c-17.7,10.8-39.9,11.1-58.1,1.1c-20.6-11.4-42.6-20.5-65.6-27.2
	c-19.9-5.7-35.2-21.7-40-41.8L466.9,0.8C458,0.3,449,0,440,0s-18,0.3-26.9,0.8l-21.8,89.9c-4.9,20.1-20.2,36-40,41.8
	c-23.1,6.6-45,15.8-65.6,27.2c-18.2,10-40.3,9.7-58.1-1.1l-79-48.1c-13.4,11.9-26.2,24.6-38.1,38.1l48.1,79
	c10.8,17.7,11.1,39.9,1.1,58.1c-11.4,20.6-20.5,42.6-27.2,65.6c-5.7,19.9-21.7,35.2-41.8,40L0.8,413.1C0.3,422,0,431,0,440
	s0.3,18,0.8,26.9l89.9,21.8c20.1,4.9,36,20.2,41.8,40c6.6,23.1,15.8,45,27.2,65.6c10,18.2,9.7,40.3-1.1,58.1l-48.1,79
	c11.9,13.4,24.6,26.2,38.1,38.1l79-48.1c17.7-10.8,39.9-11.1,58.1-1.1c20.6,11.4,42.6,20.5,65.6,27.2c19.9,5.7,35.2,21.7,40,41.8
	l21.8,89.9c8.9,0.5,17.9,0.8,26.9,0.8s18-0.3,26.9-0.8l21.8-89.9c4.9-20.1,20.2-36,40-41.8c33.8-9.7,65.3-24.9,93.5-44.5l109.2,66.6
	c13.4-11.9,26.2-24.6,38.1-38.1l-48.1-79c-10.8-17.7-11.1-39.9-1.1-58.1c11.4-20.6,20.5-42.6,27.2-65.6c5.7-19.9,21.7-35.2,41.8-40
	l89.9-21.8c0.5-8.9,0.8-17.9,0.8-26.9S879.7,422,879.2,413.1z M440,640c-110.5,0-200-89.5-200-200s89.5-200,200-200
	c110.5,0,200,89.5,200,200S550.5,640,440,640z"/>
</svg>
