<?xml version="1.0" encoding="utf-8"?>
<!-- Generator: Adobe Illustrator 19.0.0, SVG Export Plug-In . SVG Version: 6.00 Build 0)  -->
<svg version="1.1" id="Layer_1" xmlns="http://www.w3.org/2000/svg" xmlns:xlink="http://www.w3.org/1999/xlink" x="0px" y="0px"
	 viewBox="0 0 16 16" enable-background="new 0 0 16 16" xml:space="preserve">
<g>
	<path fill="#AACD4D" d="M15,16H1c-0.6,0-1-0.4-1-1V1c0-0.6,0.4-1,1-1h14c0.6,0,1,0.4,1,1v14C16,15.6,15.6,16,15,16z"/>
	<polyline fill="none" stroke="#FFFFFF" stroke-miterlimit="10" points="3.4,10.9 5.2,8.4 10.8,8.4 12.6,10.9 	"/>
	<polygon fill="#FFFFFF" stroke="#FFFFFF" stroke-miterlimit="10" points="12.6,13.6 3.4,13.6 3.4,11 4.9,11 6,12.3 8,12.3 10,12.3 
		11.2,11 12.6,11 	"/>
	<path fill="#AACD4D" d="M9.4,9.7H6.6c-0.1,0-0.2-0.1-0.2-0.2V5.4c0-0.1,0.1-0.2,0.2-0.2h2.7c0.1,0,0.2,0.1,0.2,0.2v4.1
		C9.6,9.6,9.5,9.7,9.4,9.7z"/>
	<path fill="#FFFFFF" stroke="#AACD4D" stroke-miterlimit="10" d="M10.7,5.8H5.3C4.9,5.8,4.6,5.2,5,4.9l2.7-2.7C7.9,2,8.2,2,8.4,2.2
		L11,4.9C11.4,5.2,11.1,5.8,10.7,5.8z"/>
	<path fill="#FFFFFF" d="M8.4,9H7.6C7.5,9,7.4,8.9,7.4,8.8V4.8c0-0.1,0.1-0.2,0.2-0.2h0.7c0.1,0,0.2,0.1,0.2,0.2v4.1
		C8.6,8.9,8.5,9,8.4,9z"/>
</g>
</svg>
