<?xml version="1.0" encoding="utf-8"?>
<!-- Generator: Adobe Illustrator 19.0.1, SVG Export Plug-In . SVG Version: 6.00 Build 0)  -->
<svg version="1.1" id="Layer_1" xmlns="http://www.w3.org/2000/svg" xmlns:xlink="http://www.w3.org/1999/xlink" x="0px" y="0px"
	 viewBox="1 -0.3 792.6 560.3" enable-background="new 1 -0.3 792.6 560.3" xml:space="preserve">
<path fill="#353B44" d="M57.9,121.1c3.9-13.2,15.8-22,29.3-22l603.4,2V81c0-17.1-13.8-30.6-30.6-30.6H290.6
	c-10.5,0-20.1-5.3-25.7-13.8l-14.8-22.7c-5.9-8.9-15.5-14.2-26-14.2h-128C85.2-0.3,75,5.6,69.8,14.8L58,34.9
	C52.4,44.4,42.5,50,31.7,50C14.5,50,1,63.9,1,80.6v237.2L57.9,121.1z"/>
<path fill="#353B44" d="M136.6,157l626.5,2c20.4,0,34.9,19.4,29.3,38.8L693.7,538c-3.9,13.2-15.8,22-29.3,22l-626.5-2
	C17.5,558,3,538.6,8.6,519.2L107.3,179C110.9,165.9,123.1,156.6,136.6,157z"/>
</svg>
