<?xml version="1.0" encoding="utf-8"?>
<!-- Generator: Adobe Illustrator 18.1.1, SVG Export Plug-In . SVG Version: 6.00 Build 0)  -->
<svg version="1.1" id="Layer_1" xmlns="http://www.w3.org/2000/svg" xmlns:xlink="http://www.w3.org/1999/xlink" x="0px" y="0px"
	 viewBox="84 0 792.5 560.3" enable-background="new 84 0 792.5 560.3" xml:space="preserve">
<path fill="#AACD4D" d="M140.9,121.4c3.9-13.2,15.8-22,29.3-22l603.4,2V81.3c0-17.1-13.8-30.6-30.6-30.6H373.6
	c-10.5,0-20.1-5.3-25.7-13.8l-14.8-22.7C327.2,5.3,317.6,0,307.1,0h-128c-10.9,0-21.1,5.9-26.3,15.1l-11.8,20.1
	c-5.6,9.5-15.5,15.1-26.3,15.1C97.5,50.3,84,64.2,84,80.9v237.2L140.9,121.4z"/>
<path fill="#AACD4D" d="M219.6,157.3l626.5,2c20.4,0,34.9,19.4,29.3,38.8l-98.7,340.2c-3.9,13.2-15.8,22-29.3,22l-626.5-2
	c-20.4,0-34.9-19.4-29.3-38.8l98.7-340.2C193.9,166.2,206.1,156.9,219.6,157.3z"/>
</svg>
