<?xml version="1.0" encoding="utf-8"?>
<!-- Generator: Adobe Illustrator 19.0.0, SVG Export Plug-In . SVG Version: 6.00 Build 0)  -->
<svg version="1.1" id="Layer_1" xmlns="http://www.w3.org/2000/svg" xmlns:xlink="http://www.w3.org/1999/xlink" x="0px" y="0px"
	 viewBox="0 0 16 16" enable-background="new 0 0 16 16" xml:space="preserve">
<path fill="#EB1B1B" d="M15,16H1c-0.6,0-1-0.4-1-1V1c0-0.6,0.4-1,1-1h14c0.6,0,1,0.4,1,1v14C16,15.6,15.6,16,15,16z"/>
<g>
	<path fill="none" stroke="#FFFFFF" stroke-miterlimit="10" d="M8,9.4L8,9.4c-1.1,0-2-0.9-2-2V4.2c0-1.1,0.9-2,2-2h0
		c1.1,0,2,0.9,2,2v3.2C10,8.5,9.1,9.4,8,9.4z"/>
	<g>
		<path fill="#FFFFFF" stroke="#FFFFFF" stroke-miterlimit="10" d="M10.9,13.7h-6c-0.6,0-1-0.4-1-1l0-5c0-0.6,0.4-1,1-1h6
			c0.6,0,1,0.4,1,1v5C11.9,13.2,11.4,13.7,10.9,13.7z"/>
		<circle fill="#EB1B1B" cx="7.8" cy="10.1" r="1.5"/>
	</g>
</g>
</svg>
