<?xml version="1.0" encoding="utf-8"?>
<!-- Generator: Adobe Illustrator 19.0.0, SVG Export Plug-In . SVG Version: 6.00 Build 0)  -->
<svg version="1.1" id="Layer_1" xmlns="http://www.w3.org/2000/svg" xmlns:xlink="http://www.w3.org/1999/xlink" x="0px" y="0px"
	 viewBox="0 0 16 16" enable-background="new 0 0 16 16" xml:space="preserve">
<g>
	<path fill="#F4A60C" d="M15,16H1c-0.6,0-1-0.4-1-1V1c0-0.6,0.4-1,1-1h14c0.6,0,1,0.4,1,1v14C16,15.6,15.6,16,15,16z"/>
	<polyline fill="none" stroke="#FFFFFF" stroke-miterlimit="10" points="3.4,10.9 5.2,8.4 10.8,8.4 12.6,10.9 	"/>
	<polygon fill="#FFFFFF" stroke="#FFFFFF" stroke-miterlimit="10" points="12.6,13.6 3.4,13.6 3.4,11 4.9,11 6,12.3 8,12.3 10,12.3 
		11.2,11 12.6,11 	"/>
	<path fill="#FFFFFF" stroke="#F4A60C" stroke-width="0.75" stroke-miterlimit="10" d="M5.3,5.6h5.3c0.5,0,0.7,0.6,0.4,0.9L8.3,9.2
		c-0.2,0.2-0.5,0.2-0.7,0L5,6.5C4.6,6.2,4.9,5.6,5.3,5.6z"/>
	<path fill="#FFFFFF" d="M7.6,2.4h0.7c0.1,0,0.2,0.1,0.2,0.2v4.1c0,0.1-0.1,0.2-0.2,0.2H7.6c-0.1,0-0.2-0.1-0.2-0.2V2.6
		C7.4,2.5,7.5,2.4,7.6,2.4z"/>
</g>
</svg>
